<svg xmlns="http://www.w3.org/2000/svg" viewBox="0 0 64 64" role="img" aria-label="Toss Invest">
	<rect width="64" height="64" rx="14" fill="#1646ff"/>
	<path fill="#fff" d="M16 41.8c0-2.1 1.7-3.8 3.8-3.8h24.4c2.1 0 3.8 1.7 3.8 3.8s-1.7 3.8-3.8 3.8H19.8c-2.1 0-3.8-1.7-3.8-3.8Z"/>
	<path fill="#fff" fill-opacity=".9" d="M16 31.9c0-2.1 1.7-3.8 3.8-3.8h16.1c2.1 0 3.8 1.7 3.8 3.8s-1.7 3.8-3.8 3.8H19.8c-2.1 0-3.8-1.7-3.8-3.8Z"/>
	<path fill="#fff" fill-opacity=".8" d="M16 22c0-2.1 1.7-3.8 3.8-3.8h8c2.1 0 3.8 1.7 3.8 3.8s-1.7 3.8-3.8 3.8h-8C17.7 25.8 16 24.1 16 22Z"/>
</svg>
